<?xml version="1.0" standalone="no"?>
<!DOCTYPE svg PUBLIC "-//W3C//DTD SVG 20010904//EN"
 "http://www.w3.org/TR/2001/REC-SVG-20010904/DTD/svg10.dtd">
<svg version="1.0" xmlns="http://www.w3.org/2000/svg"
 width="300.000000pt" height="300.000000pt" viewBox="0 0 300.000000 300.000000"
 preserveAspectRatio="xMidYMid meet">
<metadata>
Created by potrace 1.11, written by Peter Selinger 2001-2013
</metadata>
<g transform="translate(0.000000,300.000000) scale(0.100000,-0.100000)"
fill="#000000" stroke="none">
<path d="M0 1500 l0 -1500 1500 0 1500 0 0 1500 0 1500 -1500 0 -1500 0 0
-1500z m2454 1107 c17 -12 14 -16 -33 -46 -104 -67 -166 -164 -195 -303 -14
-67 -16 -188 -16 -913 0 -557 -3 -843 -10 -856 -10 -17 -22 -19 -125 -19 -133
0 -134 1 -155 105 -15 75 -25 94 -55 105 -15 6 -128 5 -287 -1 -300 -11 -279
-4 -334 -110 -44 -83 -125 -166 -204 -208 -93 -50 -166 -61 -408 -61 l-213 0
6 23 c10 30 889 1985 932 2070 59 118 151 196 255 216 24 5 219 9 434 10 309
1 394 -2 408 -12z"/>
<path d="M1621 1550 c-61 -159 -111 -292 -111 -295 0 -3 71 -4 158 -3 l157 3
3 31 c2 18 -13 139 -32 270 -41 272 -43 284 -55 284 -4 0 -58 -130 -120 -290z"/>
</g>
</svg>
