<?xml version="1.0" standalone="no"?>
<!DOCTYPE svg PUBLIC "-//W3C//DTD SVG 20010904//EN"
 "http://www.w3.org/TR/2001/REC-SVG-20010904/DTD/svg10.dtd">
<svg version="1.0" xmlns="http://www.w3.org/2000/svg"
 width="300.000000pt" height="300.000000pt" viewBox="0 0 300.000000 300.000000"
 preserveAspectRatio="xMidYMid meet">
<metadata>
Created by potrace 1.11, written by Peter Selinger 2001-2013
</metadata>
<g transform="translate(0.000000,300.000000) scale(0.100000,-0.100000)"
fill="#000000" stroke="none">
<path d="M0 1500 l0 -1500 1500 0 1500 0 0 1500 0 1500 -1500 0 -1500 0 0
-1500z m2150 701 c0 -5 -20 -21 -45 -35 -46 -27 -92 -85 -116 -146 -11 -28
-14 -155 -17 -627 l-3 -593 -79 0 c-52 0 -81 4 -87 13 -4 6 -12 37 -19 67
l-11 55 -119 3 c-65 2 -156 0 -201 -3 l-82 -7 -28 -55 c-37 -74 -119 -148
-185 -168 -51 -15 -337 -23 -350 -9 -3 3 10 40 29 82 19 42 49 106 65 142 106
230 420 927 469 1039 66 152 95 193 159 227 44 24 48 24 332 24 165 0 288 -4
288 -9z"/>
<path d="M1656 1673 c-4 -10 -36 -92 -71 -183 -35 -91 -67 -173 -70 -182 -7
-16 2 -18 98 -18 58 0 108 4 111 9 7 10 -44 373 -54 384 -4 5 -11 0 -14 -10z"/>
</g>
</svg>
